<svg xmlns="http://www.w3.org/2000/svg" viewBox="0 0 1200 800" width="1200" height="800">
  <style>
    text { font-family: -apple-system, "SF Pro Display", "PingFang SC", "Microsoft YaHei", "SimHei", sans-serif; fill: #f0f6fc; }
  </style>
  <defs>
    <linearGradient id="bg" x1="0%" y1="0%" x2="100%" y2="100%">
      <stop offset="0%" stop-color="#0d1117"/>
      <stop offset="50%" stop-color="#161b22"/>
      <stop offset="100%" stop-color="#0d1117"/>
    </linearGradient>
    <radialGradient id="glow-blue" cx="30%" cy="35%" r="40%">
      <stop offset="0%" stop-color="rgba(88,166,255,0.12)"/>
      <stop offset="100%" stop-color="rgba(88,166,255,0)"/>
    </radialGradient>
    <radialGradient id="glow-purple" cx="70%" cy="65%" r="35%">
      <stop offset="0%" stop-color="rgba(188,140,255,0.10)"/>
      <stop offset="100%" stop-color="rgba(188,140,255,0)"/>
    </radialGradient>
    <radialGradient id="glow-green" cx="50%" cy="80%" r="30%">
      <stop offset="0%" stop-color="rgba(63,185,80,0.08)"/>
      <stop offset="100%" stop-color="rgba(63,185,80,0)"/>
    </radialGradient>
    <linearGradient id="text-grad" x1="0%" y1="0%" x2="100%" y2="0%">
      <stop offset="0%" stop-color="#58a6ff"/>
      <stop offset="100%" stop-color="#bc8cff"/>
    </linearGradient>
    <linearGradient id="text-grad-green" x1="0%" y1="0%" x2="100%" y2="0%">
      <stop offset="0%" stop-color="#3fb950"/>
      <stop offset="100%" stop-color="#58a6ff"/>
    </linearGradient>
    <linearGradient id="text-grad-orange" x1="0%" y1="0%" x2="100%" y2="0%">
      <stop offset="0%" stop-color="#f78166"/>
      <stop offset="100%" stop-color="#f0883e"/>
    </linearGradient>
    <marker id="arrow-blue" markerWidth="8" markerHeight="6" refX="7" refY="3" orient="auto">
      <polygon points="0 0, 8 3, 0 6" fill="#58a6ff"/>
    </marker>
    <marker id="arrow-purple" markerWidth="8" markerHeight="6" refX="7" refY="3" orient="auto">
      <polygon points="0 0, 8 3, 0 6" fill="#bc8cff"/>
    </marker>
    <marker id="arrow-green" markerWidth="8" markerHeight="6" refX="7" refY="3" orient="auto">
      <polygon points="0 0, 8 3, 0 6" fill="#3fb950"/>
    </marker>
    <marker id="arrow-orange" markerWidth="8" markerHeight="6" refX="7" refY="3" orient="auto">
      <polygon points="0 0, 8 3, 0 6" fill="#f78166"/>
    </marker>
  </defs>
  <rect width="1200" height="800" fill="url(#bg)"/>
  <rect width="1200" height="800" fill="url(#glow-blue)"/>
  <rect width="1200" height="800" fill="url(#glow-purple)"/>
  <rect width="1200" height="800" fill="url(#glow-green)"/>
  <text x="600" y="32" text-anchor="middle" fill="url(#text-grad)" font-size="20" font-weight="700" letter-spacing="0.04em">ys-boot-pro + ys-vue-pro 技术架构</text>
  <rect x="30" y="48" width="1140" height="72" rx="6" fill="rgba(255,255,255,0.03)" stroke="rgba(88,166,255,0.25)" stroke-width="1" stroke-dasharray="6,4"/>
  <text x="46" y="64" fill="#58a6ff" font-size="10" font-weight="600" letter-spacing="0.06em">CLIENT LAYER · 客户端层</text>
  <rect x="490" y="62" width="80" height="46" rx="6" fill="rgba(88,166,255,0.08)" stroke="rgba(88,166,255,0.3)" stroke-width="1"/>
  <rect x="490" y="62" width="80" height="16" rx="6" fill="rgba(88,166,255,0.15)"/>
  <rect x="490" y="72" width="80" height="6" fill="rgba(88,166,255,0.15)"/>
  <circle cx="500" cy="70" r="3" fill="#ef4444" opacity="0.8"/>
  <circle cx="508" cy="70" r="3" fill="#f59e0b" opacity="0.8"/>
  <circle cx="516" cy="70" r="3" fill="#10b981" opacity="0.8"/>
  <text x="530" y="98" text-anchor="middle" fill="#f0f6fc" font-size="11" font-weight="500">浏览器</text>
  <rect x="630" y="62" width="50" height="46" rx="8" fill="rgba(188,140,255,0.08)" stroke="rgba(188,140,255,0.3)" stroke-width="1"/>
  <rect x="640" y="68" width="30" height="28" rx="2" fill="rgba(188,140,255,0.12)"/>
  <circle cx="655" cy="101" r="3" fill="rgba(188,140,255,0.5)"/>
  <text x="655" y="96" text-anchor="middle" fill="#f0f6fc" font-size="11" font-weight="500">移动端</text>
  <line x1="530" y1="120" x2="530" y2="138" stroke="#58a6ff" stroke-width="1.5" opacity="0.7" marker-end="url(#arrow-blue)"/>
  <line x1="655" y1="120" x2="655" y2="138" stroke="#bc8cff" stroke-width="1.5" opacity="0.7" marker-end="url(#arrow-purple)"/>
  <rect x="30" y="142" width="1140" height="82" rx="6" fill="rgba(255,255,255,0.03)" stroke="rgba(63,185,80,0.25)" stroke-width="1" stroke-dasharray="6,4"/>
  <text x="46" y="158" fill="#3fb950" font-size="10" font-weight="600" letter-spacing="0.06em">FRONTEND LAYER · 前端层</text>
  <rect x="60" y="178" width="61" height="24" rx="12" fill="#42b883" fill-opacity="0.15" stroke="#42b883" stroke-opacity="0.4" stroke-width="1"/>
  <text x="90.5" y="193" text-anchor="middle" fill="#f0f6fc" font-size="11" font-weight="500">Vue 3</text>
  <rect x="155" y="178" width="106" height="24" rx="12" fill="#3178c6" fill-opacity="0.15" stroke="#3178c6" stroke-opacity="0.4" stroke-width="1"/>
  <text x="208.0" y="193" text-anchor="middle" fill="#f0f6fc" font-size="11" font-weight="500">TypeScript</text>
  <rect x="275" y="178" width="124" height="24" rx="12" fill="#409eff" fill-opacity="0.15" stroke="#409eff" stroke-opacity="0.4" stroke-width="1"/>
  <text x="337.0" y="193" text-anchor="middle" fill="#f0f6fc" font-size="11" font-weight="500">Element Plus</text>
  <rect x="405" y="178" width="97" height="24" rx="12" fill="#5f6ab8" fill-opacity="0.15" stroke="#5f6ab8" stroke-opacity="0.4" stroke-width="1"/>
  <text x="453.5" y="193" text-anchor="middle" fill="#f0f6fc" font-size="11" font-weight="500">Vxe-Table</text>
  <rect x="515" y="178" width="61" height="24" rx="12" fill="#ffd859" fill-opacity="0.15" stroke="#ffd859" stroke-opacity="0.4" stroke-width="1"/>
  <text x="545.5" y="193" text-anchor="middle" fill="#f0f6fc" font-size="11" font-weight="500">Pinia</text>
  <rect x="600" y="178" width="79" height="24" rx="12" fill="#e43961" fill-opacity="0.15" stroke="#e43961" stroke-opacity="0.4" stroke-width="1"/>
  <text x="639.5" y="193" text-anchor="middle" fill="#f0f6fc" font-size="11" font-weight="500">ECharts</text>
  <rect x="700" y="178" width="106" height="24" rx="12" fill="#42b883" fill-opacity="0.15" stroke="#42b883" stroke-opacity="0.4" stroke-width="1"/>
  <text x="753.0" y="193" text-anchor="middle" fill="#f0f6fc" font-size="11" font-weight="500">Vue Router</text>
  <rect x="820" y="178" width="52" height="24" rx="12" fill="#646cff" fill-opacity="0.15" stroke="#646cff" stroke-opacity="0.4" stroke-width="1"/>
  <text x="846.0" y="193" text-anchor="middle" fill="#f0f6fc" font-size="11" font-weight="500">Vite</text>
  <text x="1060" y="188" text-anchor="middle" fill="url(#text-grad-green)" font-size="13" font-weight="600">ys-vue-pro</text>
  <line x1="600" y1="224" x2="600" y2="248" stroke="#3fb950" stroke-width="1.5" opacity="0.7" marker-end="url(#arrow-green)"/>
  <rect x="30" y="252" width="1140" height="68" rx="6" fill="rgba(255,255,255,0.03)" stroke="rgba(247,129,102,0.25)" stroke-width="1" stroke-dasharray="6,4"/>
  <text x="46" y="268" fill="#f78166" font-size="10" font-weight="600" letter-spacing="0.06em">GATEWAY LAYER · 网关层</text>
  <polygon points="480,260 505.98,275.0 505.98,305.0 480,320 454.02,305.0 454.02,275.0" fill="rgba(247,129,102,0.12)" stroke="#f78166" stroke-width="1.5"/>
  <text x="480" y="294" text-anchor="middle" fill="#f0f6fc" font-size="11" font-weight="600">Spring Boot 3.x</text>
  <rect x="660" y="276" width="120" height="28" rx="14" fill="rgba(188,140,255,0.12)" stroke="#bc8cff" stroke-width="1.5"/>
  <text x="720" y="294" text-anchor="middle" fill="#f0f6fc" font-size="11" font-weight="600">Sa-Token 认证授权</text>
  <line x1="480" y1="320" x2="480" y2="342" stroke="#f78166" stroke-width="1.5" opacity="0.7" marker-end="url(#arrow-orange)"/>
  <line x1="720" y1="320" x2="720" y2="342" stroke="#bc8cff" stroke-width="1.5" opacity="0.7" marker-end="url(#arrow-purple)"/>
  <rect x="30" y="346" width="1140" height="195" rx="6" fill="rgba(255,255,255,0.03)" stroke="rgba(88,166,255,0.25)" stroke-width="1" stroke-dasharray="6,4"/>
  <text x="46" y="362" fill="#58a6ff" font-size="10" font-weight="600" letter-spacing="0.06em">BUSINESS SERVICE LAYER · 业务服务层</text>
  <rect x="45" y="374" width="265" height="156" rx="12" fill="rgba(255,255,255,0.05)" stroke="#58a6ff" stroke-opacity="0.3" stroke-width="1"/>
  <line x1="57" y1="375" x2="298" y2="375" stroke="rgba(255,255,255,0.2)" stroke-width="1"/>
  <text x="177.5" y="394" text-anchor="middle" fill="#58a6ff" font-size="12" font-weight="600">系统管理模块</text>
  <text x="59" y="412" fill="#c9d1d9" font-size="10">• 用户管理</text>
  <text x="59" y="429" fill="#c9d1d9" font-size="10">• 角色管理</text>
  <text x="59" y="446" fill="#c9d1d9" font-size="10">• 菜单管理</text>
  <text x="59" y="463" fill="#c9d1d9" font-size="10">• 部门管理</text>
  <text x="59" y="480" fill="#c9d1d9" font-size="10">• 岗位管理</text>
  <text x="59" y="497" fill="#c9d1d9" font-size="10">• 字典管理</text>
  <text x="59" y="514" fill="#c9d1d9" font-size="10">• 配置管理</text>
  <text x="191" y="412" fill="#c9d1d9" font-size="10">• 通知管理</text>
  <text x="191" y="429" fill="#c9d1d9" font-size="10">• 消息管理</text>
  <text x="191" y="446" fill="#c9d1d9" font-size="10">• 文件管理</text>
  <text x="191" y="463" fill="#c9d1d9" font-size="10">• 日志管理</text>
  <text x="191" y="480" fill="#c9d1d9" font-size="10">• 权限管理</text>
  <text x="191" y="497" fill="#c9d1d9" font-size="10">• IP规则</text>
  <text x="191" y="514" fill="#c9d1d9" font-size="10">• 敏感词</text>
  <rect x="322" y="374" width="265" height="156" rx="12" fill="rgba(255,255,255,0.05)" stroke="#bc8cff" stroke-opacity="0.3" stroke-width="1"/>
  <line x1="334" y1="375" x2="575" y2="375" stroke="rgba(255,255,255,0.2)" stroke-width="1"/>
  <text x="454.5" y="394" text-anchor="middle" fill="#bc8cff" font-size="12" font-weight="600">AI 智能模块</text>
  <text x="336" y="412" fill="#c9d1d9" font-size="10">• AI对话</text>
  <text x="336" y="429" fill="#c9d1d9" font-size="10">• 供应商管理</text>
  <text x="336" y="446" fill="#c9d1d9" font-size="10">• 模型管理</text>
  <text x="336" y="463" fill="#c9d1d9" font-size="10">• 提示词管理</text>
  <text x="336" y="480" fill="#c9d1d9" font-size="10">• 知识库</text>
  <text x="336" y="497" fill="#c9d1d9" font-size="10">• AI助手</text>
  <text x="336" y="514" fill="#c9d1d9" font-size="10">• 意图识别</text>
  <text x="468" y="412" fill="#c9d1d9" font-size="10">• Function Calling</text>
  <text x="468" y="429" fill="#c9d1d9" font-size="10">• Token配置</text>
  <rect x="599" y="374" width="265" height="156" rx="12" fill="rgba(255,255,255,0.05)" stroke="#3fb950" stroke-opacity="0.3" stroke-width="1"/>
  <line x1="611" y1="375" x2="852" y2="375" stroke="rgba(255,255,255,0.2)" stroke-width="1"/>
  <text x="731.5" y="394" text-anchor="middle" fill="#3fb950" font-size="12" font-weight="600">代码生成模块</text>
  <text x="613" y="412" fill="#c9d1d9" font-size="10">• 代码生成配置</text>
  <text x="613" y="429" fill="#c9d1d9" font-size="10">• 数据源管理</text>
  <text x="613" y="446" fill="#c9d1d9" font-size="10">• 模板管理</text>
  <text x="613" y="463" fill="#c9d1d9" font-size="10">• 模板集管理</text>
  <text x="613" y="480" fill="#c9d1d9" font-size="10">• 参数配置</text>
  <rect x="876" y="374" width="280" height="156" rx="12" fill="rgba(255,255,255,0.05)" stroke="#f78166" stroke-opacity="0.3" stroke-width="1"/>
  <line x1="888" y1="375" x2="1144" y2="375" stroke="rgba(255,255,255,0.2)" stroke-width="1"/>
  <text x="1016.0" y="394" text-anchor="middle" fill="#f78166" font-size="12" font-weight="600">系统监控模块</text>
  <text x="890" y="412" fill="#c9d1d9" font-size="10">• 服务器监控</text>
  <text x="890" y="429" fill="#c9d1d9" font-size="10">• Redis监控</text>
  <text x="890" y="446" fill="#c9d1d9" font-size="10">• 定时任务</text>
  <text x="890" y="463" fill="#c9d1d9" font-size="10">• 数据库监控</text>
  <text x="890" y="480" fill="#c9d1d9" font-size="10">• 在线用户</text>
  <text x="890" y="497" fill="#c9d1d9" font-size="10">• API性能监控</text>
  <text x="1100" y="362" text-anchor="middle" fill="url(#text-grad-orange)" font-size="13" font-weight="600">ys-boot-pro</text>
  <line x1="300" y1="541" x2="300" y2="562" stroke="#58a6ff" stroke-width="1.5" opacity="0.6" marker-end="url(#arrow-blue)"/>
  <line x1="600" y1="541" x2="600" y2="562" stroke="#bc8cff" stroke-width="1.5" opacity="0.6" marker-end="url(#arrow-purple)"/>
  <line x1="900" y1="541" x2="900" y2="562" stroke="#3fb950" stroke-width="1.5" opacity="0.6" marker-end="url(#arrow-green)"/>
  <rect x="30" y="566" width="1140" height="68" rx="6" fill="rgba(255,255,255,0.03)" stroke="rgba(188,140,255,0.25)" stroke-width="1" stroke-dasharray="6,4"/>
  <text x="46" y="582" fill="#bc8cff" font-size="10" font-weight="600" letter-spacing="0.06em">INFRASTRUCTURE LAYER · 基础设施层</text>
  <rect x="55" y="592" width="60" height="26" rx="13" fill="#58a6ff" fill-opacity="0.1" stroke="#58a6ff" stroke-opacity="0.35" stroke-width="1"/>
  <text x="85.0" y="609" text-anchor="middle" fill="#f0f6fc" font-size="10" font-weight="500">文件存储</text>
  <rect x="160" y="592" width="60" height="26" rx="13" fill="#3fb950" fill-opacity="0.1" stroke="#3fb950" stroke-opacity="0.35" stroke-width="1"/>
  <text x="190.0" y="609" text-anchor="middle" fill="#f0f6fc" font-size="10" font-weight="500">系统日志</text>
  <rect x="265" y="592" width="60" height="26" rx="13" fill="#f78166" fill-opacity="0.1" stroke="#f78166" stroke-opacity="0.35" stroke-width="1"/>
  <text x="295.0" y="609" text-anchor="middle" fill="#f0f6fc" font-size="10" font-weight="500">字典翻译</text>
  <rect x="370" y="592" width="60" height="26" rx="13" fill="#bc8cff" fill-opacity="0.1" stroke="#bc8cff" stroke-opacity="0.35" stroke-width="1"/>
  <text x="400.0" y="609" text-anchor="middle" fill="#f0f6fc" font-size="10" font-weight="500">枚举翻译</text>
  <rect x="475" y="592" width="60" height="26" rx="13" fill="#58a6ff" fill-opacity="0.1" stroke="#58a6ff" stroke-opacity="0.35" stroke-width="1"/>
  <text x="505.0" y="609" text-anchor="middle" fill="#f0f6fc" font-size="10" font-weight="500">敏感脱敏</text>
  <rect x="580" y="592" width="60" height="26" rx="13" fill="#3fb950" fill-opacity="0.1" stroke="#3fb950" stroke-opacity="0.35" stroke-width="1"/>
  <text x="610.0" y="609" text-anchor="middle" fill="#f0f6fc" font-size="10" font-weight="500">定时任务</text>
  <rect x="685" y="592" width="60" height="26" rx="13" fill="#f78166" fill-opacity="0.1" stroke="#f78166" stroke-opacity="0.35" stroke-width="1"/>
  <text x="715.0" y="609" text-anchor="middle" fill="#f0f6fc" font-size="10" font-weight="500">数据权限</text>
  <rect x="790" y="592" width="110" height="26" rx="13" fill="#bc8cff" fill-opacity="0.1" stroke="#bc8cff" stroke-opacity="0.35" stroke-width="1"/>
  <text x="845.0" y="609" text-anchor="middle" fill="#f0f6fc" font-size="10" font-weight="500">Excel导入导出</text>
  <rect x="930" y="592" width="60" height="26" rx="13" fill="#58a6ff" fill-opacity="0.1" stroke="#58a6ff" stroke-opacity="0.35" stroke-width="1"/>
  <text x="960.0" y="609" text-anchor="middle" fill="#f0f6fc" font-size="10" font-weight="500">系统监控</text>
  <line x1="300" y1="634" x2="300" y2="656" stroke="#58a6ff" stroke-width="1.5" opacity="0.6" marker-end="url(#arrow-blue)"/>
  <line x1="600" y1="634" x2="600" y2="656" stroke="#bc8cff" stroke-width="1.5" opacity="0.6" marker-end="url(#arrow-purple)"/>
  <line x1="900" y1="634" x2="900" y2="656" stroke="#3fb950" stroke-width="1.5" opacity="0.6" marker-end="url(#arrow-green)"/>
  <rect x="30" y="660" width="1140" height="120" rx="6" fill="rgba(255,255,255,0.03)" stroke="rgba(63,185,80,0.25)" stroke-width="1" stroke-dasharray="6,4"/>
  <text x="46" y="676" fill="#3fb950" font-size="10" font-weight="600" letter-spacing="0.06em">DATA LAYER · 数据层</text>
  <ellipse cx="300" cy="698" rx="45.0" ry="15.0" fill="rgba(68,121,161,0.2)" stroke="#4479A1" stroke-width="1.5"/>
  <rect x="255.0" y="698" width="90" height="55" fill="rgba(68,121,161,0.15)" stroke="none"/>
  <line x1="255.0" y1="698" x2="255.0" y2="753" stroke="#4479A1" stroke-width="1.5"/>
  <line x1="345.0" y1="698" x2="345.0" y2="753" stroke="#4479A1" stroke-width="1.5"/>
  <ellipse cx="300" cy="753" rx="45.0" ry="15.0" fill="rgba(68,121,161,0.25)" stroke="#4479A1" stroke-width="1.5"/>
  <text x="300" y="729.5" text-anchor="middle" fill="#f0f6fc" font-size="13" font-weight="600">MySQL</text>
  <ellipse cx="600" cy="698" rx="45.0" ry="15.0" fill="rgba(220,56,45,0.2)" stroke="#DC382D" stroke-width="1.5"/>
  <rect x="555.0" y="698" width="90" height="55" fill="rgba(220,56,45,0.15)" stroke="none"/>
  <line x1="555.0" y1="698" x2="555.0" y2="753" stroke="#DC382D" stroke-width="1.5"/>
  <line x1="645.0" y1="698" x2="645.0" y2="753" stroke="#DC382D" stroke-width="1.5"/>
  <ellipse cx="600" cy="753" rx="45.0" ry="15.0" fill="rgba(220,56,45,0.25)" stroke="#DC382D" stroke-width="1.5"/>
  <text x="600" y="729.5" text-anchor="middle" fill="#f0f6fc" font-size="13" font-weight="600">Redis</text>
  <ellipse cx="900" cy="698" rx="55.0" ry="18.333333333333332" fill="rgba(63,185,80,0.2)" stroke="#3fb950" stroke-width="1.5"/>
  <rect x="845.0" y="698" width="110" height="55" fill="rgba(63,185,80,0.15)" stroke="none"/>
  <line x1="845.0" y1="698" x2="845.0" y2="753" stroke="#3fb950" stroke-width="1.5"/>
  <line x1="955.0" y1="698" x2="955.0" y2="753" stroke="#3fb950" stroke-width="1.5"/>
  <ellipse cx="900" cy="753" rx="55.0" ry="18.333333333333332" fill="rgba(63,185,80,0.25)" stroke="#3fb950" stroke-width="1.5"/>
  <text x="900" y="729.5" text-anchor="middle" fill="#f0f6fc" font-size="13" font-weight="600">MinIO / OSS</text>
  <text x="300" y="775" text-anchor="middle" fill="#8b949e" font-size="10">关系型数据库</text>
  <text x="600" y="775" text-anchor="middle" fill="#8b949e" font-size="10">缓存 / Session</text>
  <text x="900" y="775" text-anchor="middle" fill="#8b949e" font-size="10">对象存储</text>
  <rect x="960" y="50" width="200" height="80" rx="8" fill="rgba(255,255,255,0.04)" stroke="rgba(255,255,255,0.1)" stroke-width="1"/>
  <text x="970" y="66" fill="#8b949e" font-size="9" font-weight="600" letter-spacing="0.06em">LEGEND</text>
  <line x1="970" y1="78" x2="990" y2="78" stroke="#58a6ff" stroke-width="1.5" marker-end="url(#arrow-blue)"/>
  <text x="998" y="82" fill="#c9d1d9" font-size="9">请求/数据流</text>
  <line x1="970" y1="94" x2="990" y2="94" stroke="#bc8cff" stroke-width="1.5" marker-end="url(#arrow-purple)"/>
  <text x="998" y="98" fill="#c9d1d9" font-size="9">认证/控制流</text>
  <line x1="970" y1="110" x2="990" y2="110" stroke="#3fb950" stroke-width="1.5" marker-end="url(#arrow-green)"/>
  <text x="998" y="114" fill="#c9d1d9" font-size="9">基础设施调用</text>
</svg>